<?xml version="1.0" standalone="no"?>
<!DOCTYPE svg PUBLIC "-//W3C//DTD SVG 20010904//EN"
 "http://www.w3.org/TR/2001/REC-SVG-20010904/DTD/svg10.dtd">
<svg version="1.0" xmlns="http://www.w3.org/2000/svg"
 width="285.000000pt" height="285.000000pt" viewBox="0 0 285.000000 285.000000"
 preserveAspectRatio="xMidYMid meet">
<metadata>
Created by potrace 1.11, written by Peter Selinger 2001-2013
</metadata>
<g transform="translate(0.000000,285.000000) scale(0.100000,-0.100000)"
fill="#000000" stroke="none">
<path d="M8 1979 c-6 -4 -8 -14 -5 -23 6 -14 73 -16 700 -16 l693 0 2 -34 c2
-23 -3 -36 -13 -40 -12 -4 -15 -30 -15 -157 0 -144 1 -151 20 -156 18 -5 20
-11 15 -47 -3 -22 -7 -56 -9 -75 -2 -18 -9 -37 -15 -40 -6 -4 -34 -71 -62
-149 l-52 -142 -121 0 c-66 0 -350 -1 -629 0 -447 0 -508 -2 -514 -16 -3 -8
-2 -18 2 -22 3 -4 283 -8 621 -8 339 -1 617 -4 620 -6 2 -3 -5 -31 -17 -64
-12 -32 -27 -78 -35 -101 l-13 -43 38 0 38 0 34 105 c30 91 37 104 56 105 20
0 22 -4 19 -32 -12 -84 -16 -182 -7 -168 5 8 12 47 15 85 10 110 10 110 40
113 23 3 27 0 22 -15 -3 -10 -8 -45 -11 -79 -3 -33 -8 -72 -10 -87 -4 -18 -1
-27 8 -27 8 0 14 6 14 13 1 6 5 46 9 87 4 41 7 83 8 93 0 9 5 17 11 18 17 1
178 1 212 0 26 -1 34 -6 39 -26 8 -32 24 -32 24 0 0 20 5 25 28 26 15 0 250 1
522 2 488 2 495 2 495 22 0 20 -7 20 -480 22 -264 1 -508 2 -542 3 -35 0 -63
4 -63 10 0 5 -27 64 -60 131 -33 67 -60 129 -60 139 0 10 -5 20 -12 22 -7 3
-12 18 -13 34 0 16 -4 35 -8 42 -5 6 -6 12 -2 12 3 0 1 9 -5 20 -10 19 -9 20
17 14 15 -3 34 -7 41 -10 33 -10 18 67 -18 96 -14 11 -21 34 -26 85 -4 44 -14
80 -26 98 -17 24 -18 28 -4 33 44 17 -16 69 -76 66 -34 -1 -38 2 -38 24 l0 24
685 0 c609 0 686 2 692 15 3 9 2 19 -2 23 -9 9 -2762 10 -2777 1z m1450 -151
c-12 -12 -26 -17 -36 -13 -15 5 -14 9 7 25 33 24 56 15 29 -12z m75 -451 c7
-7 42 -72 79 -145 l67 -132 -87 -1 c-79 -1 -125 0 -128 4 -1 1 2 34 7 72 5 39
11 88 13 110 4 41 24 105 33 105 2 0 10 -6 16 -13z m-131 -48 c-2 -8 -19 -56
-38 -108 -18 -52 -34 -100 -34 -108 0 -7 -7 -13 -16 -13 -9 0 -14 6 -12 13 3
6 22 63 43 125 22 62 44 110 50 108 5 -2 9 -10 7 -17z m63 -16 c-1 -16 -6 -62
-10 -103 -9 -102 -12 -110 -41 -110 -19 0 -24 4 -20 18 2 9 7 47 11 84 9 95
15 122 28 130 24 15 36 8 32 -19z m-190 -349 c-15 -38 -29 -79 -32 -91 -6 -24
-18 -30 -27 -14 -3 5 8 42 24 83 16 40 30 78 30 84 0 5 6 16 13 23 22 23 19
-12 -8 -85z"/>
<path d="M70 1783 c-37 -15 -39 -34 -40 -276 l0 -238 25 -24 c16 -17 36 -25
62 -26 46 -1 220 -1 248 0 19 1 20 7 18 153 0 84 -1 159 -2 166 -1 9 -19 12
-66 11 -36 -1 -65 -5 -66 -8 0 -3 -2 -51 -3 -106 -2 -55 -4 -104 -4 -108 -1
-5 -17 -7 -34 -5 l-33 3 -1 178 -2 177 77 0 c43 0 80 2 83 6 3 3 0 26 -6 52
l-12 47 -115 2 c-63 1 -121 -1 -129 -4z"/>
<path d="M439 1778 c-7 -100 -2 -558 6 -559 33 -3 127 0 131 4 3 3 5 55 5 116
-1 87 2 111 13 111 9 0 23 -39 42 -117 l29 -118 70 2 c39 1 73 2 76 2 4 1 -9
56 -28 124 -19 67 -37 133 -40 147 -2 13 -6 26 -7 28 -2 2 16 64 39 138 l43
134 -73 0 -74 0 -16 -57 c-43 -152 -58 -193 -66 -187 -5 3 -9 59 -9 125 l0
119 -70 0 c-49 0 -70 -4 -71 -12z"/>
<path d="M859 1788 c-1 -2 -2 -130 -3 -285 l-1 -283 30 -1 c35 -2 85 -2 103 0
9 1 12 31 12 116 0 151 17 156 49 13 13 -57 27 -110 31 -118 6 -11 25 -15 77
-14 82 1 81 -8 30 178 l-35 130 39 127 c21 69 39 129 39 133 0 4 -32 6 -72 4
l-71 -3 -19 -65 c-11 -36 -21 -76 -24 -89 -3 -13 -13 -40 -22 -60 l-17 -36 -3
128 -3 127 -69 0 c-39 0 -71 -1 -71 -2z"/>
<path d="M2130 1751 c0 -31 -7 -46 -35 -74 -39 -39 -43 -61 -18 -97 23 -33 33
-40 66 -40 24 0 27 3 28 38 0 20 3 30 6 22 11 -30 47 -60 72 -60 l26 0 -25 20
c-30 23 -24 30 24 32 39 1 58 -14 49 -39 -3 -8 2 -13 16 -13 16 0 21 6 21 25
0 16 6 25 15 25 8 0 15 7 15 15 0 8 -7 15 -16 15 -11 0 -15 9 -14 33 1 17 2
53 1 80 -1 39 -4 47 -20 47 -18 0 -19 -7 -17 -70 2 -76 0 -83 -26 -93 -13 -5
-16 1 -15 36 2 38 0 42 -23 43 -37 1 -60 -14 -75 -49 -14 -30 -14 -28 -15 56
0 80 -2 87 -20 87 -17 0 -20 -7 -20 -39z m0 -133 c-1 -47 -2 -51 -14 -35 -15
19 -15 27 -2 65 12 35 16 26 16 -30z m120 27 c0 -16 -6 -25 -15 -25 -18 0 -20
21 -3 38 17 17 18 16 18 -13z"/>
<path d="M2565 1660 c-1 -108 1 -120 17 -120 13 0 18 8 18 25 0 16 6 25 15 25
9 0 15 -9 15 -25 0 -18 5 -25 20 -25 15 0 20 7 20 28 0 15 -5 33 -10 38 -8 8
-8 19 0 38 14 38 13 56 -5 56 -8 0 -21 -16 -29 -35 -8 -19 -18 -35 -21 -35 -3
0 -5 26 -4 58 2 86 0 92 -19 92 -15 0 -17 -12 -17 -120z"/>
<path d="M2405 1741 c-3 -5 -1 -12 5 -16 12 -7 30 2 30 16 0 12 -27 12 -35 0z"/>
<path d="M2708 1733 c-24 -6 -23 -23 1 -23 26 0 51 10 51 21 0 9 -22 10 -52 2z"/>
<path d="M1752 1684 c-51 -35 -48 -106 4 -134 28 -15 32 -40 7 -35 -21 3 -45
-14 -37 -26 7 -12 51 -11 75 1 15 9 19 22 20 68 0 47 2 53 10 33 13 -32 38
-50 69 -51 l25 0 -30 25 -30 24 33 1 32 0 0 55 0 55 -31 -2 c-29 -2 -47 -18
-74 -63 -8 -13 -10 -8 -10 22 0 30 -4 39 -20 41 -11 1 -30 -5 -43 -14z m26
-91 l-3 -28 -13 23 c-11 20 -11 29 0 55 l13 32 3 -27 c2 -16 2 -40 0 -55z
m122 52 c0 -16 -6 -25 -15 -25 -18 0 -20 21 -3 38 17 17 18 16 18 -13z"/>
<path d="M1952 1683 c-7 -15 -9 -74 -3 -121 2 -23 51 -34 76 -18 19 13 23 24
23 67 1 29 -4 61 -9 71 -13 24 -75 25 -87 1z m58 -64 c0 -36 -4 -49 -12 -47
-13 5 -21 62 -13 86 11 30 25 8 25 -39z"/>
<path d="M2405 1690 c-2 -4 -4 -39 -4 -78 0 -64 2 -72 20 -72 17 0 19 8 19 78
0 64 -3 79 -15 79 -9 0 -18 -3 -20 -7z"/>
<path d="M2476 1669 c-14 -17 -26 -42 -26 -55 0 -32 42 -74 74 -74 l24 0 -29
29 c-37 38 -37 66 2 102 l31 29 -25 0 c-16 0 -35 -11 -51 -31z"/>
<path d="M2700 1679 c0 -6 10 -19 22 -28 l22 -18 -30 -14 c-55 -27 -39 -79 25
-79 l36 0 -2 48 c-1 26 -2 52 -2 59 -2 30 -71 62 -71 32z m35 -99 c3 -5 1 -10
-4 -10 -6 0 -11 5 -11 10 0 6 2 10 4 10 3 0 8 -4 11 -10z"/>
<path d="M1765 1451 c-2 -4 -3 -56 -4 -117 0 -109 1 -112 25 -123 21 -9 26 -8
31 6 4 9 1 19 -5 21 -8 2 -12 37 -12 111 0 90 -2 108 -15 108 -9 0 -18 -3 -20
-6z"/>
<path d="M2067 1453 c-2 -5 -3 -62 -3 -127 l1 -120 28 -1 c33 -2 77 44 77 79
0 28 -36 76 -56 76 -10 0 -15 8 -14 23 5 51 0 77 -14 77 -8 0 -16 -3 -19 -7z
m63 -163 c0 -10 -3 -25 -6 -34 -12 -30 -22 -16 -22 30 0 38 2 43 14 33 8 -6
14 -20 14 -29z"/>
<path d="M1954 1399 c-2 -3 7 -10 19 -16 24 -10 69 -3 68 11 -1 10 -81 14 -87
5z"/>
<path d="M1714 1362 c-12 -1 -27 -15 -33 -29 -10 -23 -9 -31 8 -54 25 -34 25
-38 5 -60 -14 -16 -14 -17 3 -14 10 2 21 4 25 4 4 1 12 11 19 22 9 18 7 27
-10 50 -25 34 -26 37 -4 61 19 21 16 25 -13 20z"/>
<path d="M2560 1360 l-45 -5 0 -74 c0 -63 3 -74 18 -77 14 -2 17 6 17 48 0 42
5 54 30 80 17 17 30 31 28 32 -2 1 -23 -1 -48 -4z"/>
<path d="M2718 1353 c-21 -23 -19 -130 2 -144 23 -14 56 -11 71 7 21 26 20
113 -2 135 -24 24 -51 24 -71 2z m48 -70 c-1 -26 -5 -48 -11 -48 -11 0 -18 71
-10 93 10 27 22 1 21 -45z"/>
<path d="M1835 1303 c2 -83 11 -103 44 -103 41 0 55 23 56 96 2 59 0 64 -19
64 -19 0 -21 -6 -21 -57 0 -32 -4 -58 -10 -58 -6 0 -10 26 -10 58 0 51 -2 57
-21 57 -18 0 -20 -6 -19 -57z"/>
<path d="M1955 1350 c-3 -5 -1 -11 4 -11 10 -1 23 -4 35 -8 3 0 -6 -28 -20
-61 -13 -33 -24 -62 -24 -64 0 -11 94 0 98 12 2 7 -5 12 -15 12 -37 0 -37 4 1
93 l16 37 -44 0 c-25 0 -48 -4 -51 -10z"/>
<path d="M2204 1344 c1 -9 10 -20 19 -26 24 -13 21 -22 -13 -35 -52 -20 -37
-70 23 -77 41 -6 40 -7 38 74 0 33 -7 50 -22 63 -27 21 -48 22 -45 1z m36 -94
c0 -5 -8 -10 -17 -10 -15 0 -16 2 -3 10 19 12 20 12 20 0z"/>
<path d="M2359 1333 c-8 -22 -6 -32 11 -54 24 -34 24 -38 4 -60 -14 -16 -14
-17 3 -14 10 2 21 4 25 4 4 1 12 11 19 22 9 18 7 27 -10 50 -25 34 -26 37 -4
61 15 17 15 18 -11 18 -20 0 -29 -7 -37 -27z"/>
<path d="M2287 1228 c-2 -7 -1 -22 3 -32 6 -18 7 -18 23 4 9 13 14 27 11 32
-8 12 -31 10 -37 -4z"/>
<path d="M2445 1229 c-8 -12 0 -22 20 -25 9 -1 15 6 15 17 0 20 -24 26 -35 8z"/>
<path d="M2630 1226 c0 -15 24 -28 34 -19 13 14 5 33 -14 33 -11 0 -20 -6 -20
-14z"/>
</g>
</svg>
